<svg width="41" height="32" viewBox="0 0 41 32" fill="none" xmlns="http://www.w3.org/2000/svg"><path fill-rule="evenodd" clip-rule="evenodd" d="M33.3921 2.40416C32.5308 2.44111 31.8629 2.61559 31.4152 2.90743C30.8984 3.24431 29.2945 4.55615 27.0234 6.47787V12.8706C27.5321 13.3996 27.9511 14.0305 28.2058 14.7826C28.8603 16.7155 28.9571 18.7069 28.1053 20.5184C27.2557 22.3251 25.5271 23.8145 22.8092 24.8886C21.1991 25.5249 19.022 25.6701 16.5092 25.7639C16.0536 25.7809 15.5843 25.7962 15.1015 25.8119L15.1003 25.8119L15.0995 25.8119H15.0994C13.522 25.8632 11.8003 25.9192 9.94046 26.0555L9.97061 26.0682C10.4238 26.2593 10.9323 26.4914 11.4687 26.7362L11.469 26.7363C11.5879 26.7906 11.7081 26.8454 11.8293 26.9006C13.1866 27.5182 14.7608 28.2137 16.4859 28.7469C19.9374 29.8137 23.8527 30.1881 27.6224 28.0502C29.5216 26.9732 30.6819 25.6916 31.3985 24.3299C32.1218 22.9555 32.4317 21.4252 32.5157 19.7983C32.6003 18.1602 32.4545 16.4876 32.3039 14.8201L32.2919 14.6875C32.1492 13.1091 32.0025 11.4868 32.1243 10.0669C32.3913 6.95122 34.2521 4.72889 35.9016 3.3413C36.1566 3.12679 36.4098 2.92942 36.6557 2.74894C36.4608 2.70697 36.2601 2.66676 36.0552 2.62948C35.1686 2.46816 34.2382 2.36786 33.3921 2.40416ZM25.5778 11.7309V7.70653C24.5879 8.55114 23.5183 9.46949 22.3998 10.4341C22.8163 10.5434 23.2749 10.6824 23.7471 10.8578C24.3334 11.0757 24.9687 11.3602 25.5778 11.7309ZM15.6889 16.2582C17.4688 14.7059 19.2699 13.14 20.9904 11.6516C21.0577 11.6639 21.1293 11.6775 21.2047 11.6925C21.7521 11.8015 22.4898 11.9821 23.2591 12.2679C24.8477 12.8581 26.345 13.812 26.8417 15.2786C27.4106 16.9586 27.4397 18.514 26.8057 19.8622C26.1695 21.2152 24.8003 22.4986 22.294 23.489C20.9472 24.0212 19.0195 24.1713 16.4572 24.2669C16.0117 24.2835 15.5494 24.2985 15.0711 24.314L15.0702 24.3141L15.0697 24.3141H15.0696C12.843 24.3864 10.2688 24.47 7.42872 24.7794C6.88507 24.8386 6.20882 24.9907 5.50441 25.1834L6.14899 24.6162C8.7119 22.3621 12.1575 19.3381 15.6889 16.2582ZM40.0819 3.462L40.0772 3.46408L40.0405 3.48048C40.0058 3.49619 39.9513 3.52143 39.8797 3.55625C39.7362 3.62597 39.5251 3.7336 39.2677 3.87949C38.7508 4.17253 38.0595 4.61319 37.3595 5.20207C35.9392 6.39686 34.6163 8.08445 34.4282 10.279C34.3257 11.4743 34.4542 12.9057 34.6069 14.5968C34.7553 16.2402 34.9205 18.0848 34.8254 19.9263C34.7297 21.7791 34.3694 23.6909 33.4292 25.4774C32.4824 27.2766 30.9861 28.8748 28.7329 30.1527C24.1978 32.7246 19.5685 32.2008 15.8248 31.0437C13.9523 30.4649 12.2663 29.7171 10.8994 29.0951C10.7709 29.0367 10.6459 28.9796 10.5242 28.9241C9.98932 28.68 9.51868 28.4652 9.09871 28.2881C8.57314 28.0665 8.20509 27.9383 7.95814 27.8879C6.72113 27.6356 5.13774 27.7847 3.78138 28.0345C3.11971 28.1564 2.54313 28.2962 2.13291 28.4053C1.92824 28.4597 1.76612 28.5062 1.65684 28.5385C1.60223 28.5547 1.5609 28.5673 1.53414 28.5755L1.50512 28.5846L1.49913 28.5865C0.974842 28.7547 0.408179 28.5181 0.143457 28.0199C-0.121316 27.5215 -0.0115128 26.899 0.40625 26.53C0.406039 26.5301 0.40625 26.53 1.15657 27.4419L0.40625 26.53L1.56772 25.5051C2.30858 24.8519 3.36995 23.9167 4.65219 22.789C7.21656 20.5335 10.6648 17.5073 14.1995 14.4245C17.7336 11.3423 21.3566 8.20152 24.2699 5.71782C27.1416 3.26949 29.4146 1.37998 30.1836 0.878735C31.1143 0.272026 32.2411 0.0547339 33.2965 0.00945602C34.3671 -0.0364768 35.4754 0.0905442 36.4553 0.268852C37.4404 0.448107 38.3292 0.685488 38.9699 0.877083C39.2913 0.973188 39.5529 1.05854 39.7359 1.12054C39.8275 1.15156 39.8995 1.17679 39.9498 1.19466L40.0086 1.21579L40.0253 1.22186L40.032 1.22434L39.6435 2.35307C40.0331 1.22475 40.0323 1.22443 40.032 1.22434C40.4829 1.39154 40.7889 1.82985 40.7997 2.326C40.8105 2.82149 40.5259 3.27267 40.0837 3.46125L40.0819 3.462Z" fill="#6DB353"></path></svg>